<mxfile host="app.diagrams.net" agent="Mozilla/5.0 (Macintosh; Intel Mac OS X 10.15; rv:135.0) Gecko/20100101 Firefox/135.0" version="26.0.15">
  <diagram name="Страница — 1" id="yqKd-e64dICHlNXTtekC">
    <mxGraphModel dx="995" dy="661" grid="1" gridSize="10" guides="1" tooltips="1" connect="1" arrows="1" fold="1" page="1" pageScale="1" pageWidth="827" pageHeight="1169" math="0" shadow="0">
      <root>
        <mxCell id="0" />
        <mxCell id="1" parent="0" />
        <mxCell id="pgNyFqaBAMk2wojT1kFA-26" style="edgeStyle=orthogonalEdgeStyle;rounded=0;orthogonalLoop=1;jettySize=auto;html=1;exitX=0;exitY=0.5;exitDx=0;exitDy=0;entryX=1;entryY=0.5;entryDx=0;entryDy=0;fontSize=17;" edge="1" parent="1" source="pgNyFqaBAMk2wojT1kFA-18" target="pgNyFqaBAMk2wojT1kFA-19">
          <mxGeometry relative="1" as="geometry">
            <Array as="points">
              <mxPoint x="280" y="380" />
              <mxPoint x="280" y="380" />
            </Array>
          </mxGeometry>
        </mxCell>
        <mxCell id="pgNyFqaBAMk2wojT1kFA-18" value="&lt;pre&gt;UserInterface&lt;/pre&gt;" style="swimlane;whiteSpace=wrap;html=1;" vertex="1" parent="1">
          <mxGeometry x="320" y="280" width="200" height="200" as="geometry" />
        </mxCell>
        <mxCell id="pgNyFqaBAMk2wojT1kFA-22" value="&lt;pre&gt;getUserInput()&lt;br&gt;displayResponse()&lt;/pre&gt;" style="text;html=1;align=center;verticalAlign=middle;resizable=0;points=[];autosize=1;strokeColor=none;fillColor=none;fontSize=14;labelBackgroundColor=none;" vertex="1" parent="pgNyFqaBAMk2wojT1kFA-18">
          <mxGeometry x="15" y="60" width="170" height="80" as="geometry" />
        </mxCell>
        <mxCell id="pgNyFqaBAMk2wojT1kFA-25" style="edgeStyle=orthogonalEdgeStyle;rounded=0;orthogonalLoop=1;jettySize=auto;html=1;exitX=1;exitY=0.5;exitDx=0;exitDy=0;entryX=0;entryY=0.5;entryDx=0;entryDy=0;curved=0;strokeColor=default;targetPerimeterSpacing=6;" edge="1" parent="1" source="pgNyFqaBAMk2wojT1kFA-19" target="pgNyFqaBAMk2wojT1kFA-18">
          <mxGeometry relative="1" as="geometry">
            <mxPoint x="240" y="380" as="targetPoint" />
          </mxGeometry>
        </mxCell>
        <mxCell id="pgNyFqaBAMk2wojT1kFA-19" value="&lt;pre&gt;Client&lt;/pre&gt;" style="swimlane;whiteSpace=wrap;html=1;" vertex="1" parent="1">
          <mxGeometry x="40" y="280" width="200" height="200" as="geometry" />
        </mxCell>
        <mxCell id="pgNyFqaBAMk2wojT1kFA-21" value="&lt;div align=&quot;left&quot;&gt;&lt;pre&gt;&lt;font style=&quot;font-size: 14px;&quot;&gt;sendRequest()&lt;br&gt;auth()&lt;br&gt;reg()   &lt;br&gt;getStat()&lt;br&gt;checkTask()&lt;/font&gt;&lt;/pre&gt;&lt;/div&gt;" style="text;html=1;align=left;verticalAlign=middle;resizable=0;points=[];autosize=1;strokeColor=none;fillColor=none;" vertex="1" parent="pgNyFqaBAMk2wojT1kFA-19">
          <mxGeometry x="35" y="40" width="130" height="120" as="geometry" />
        </mxCell>
        <mxCell id="pgNyFqaBAMk2wojT1kFA-20" value="&lt;pre&gt;RequestBuilder&lt;/pre&gt;" style="swimlane;whiteSpace=wrap;html=1;" vertex="1" parent="1">
          <mxGeometry x="600" y="280" width="200" height="200" as="geometry" />
        </mxCell>
        <mxCell id="pgNyFqaBAMk2wojT1kFA-24" value="&lt;div align=&quot;left&quot;&gt;&lt;pre&gt;&lt;font style=&quot;font-size: 14px;&quot;&gt;buildAuthRequest()&lt;br&gt;buildRegRequest()&lt;br&gt;buildStatRequest()&lt;br&gt;buildCheckRequest(&lt;/font&gt;)&lt;/pre&gt;&lt;/div&gt;" style="text;html=1;align=left;verticalAlign=middle;resizable=0;points=[];autosize=1;strokeColor=none;fillColor=none;" vertex="1" parent="pgNyFqaBAMk2wojT1kFA-20">
          <mxGeometry x="10" y="50" width="180" height="100" as="geometry" />
        </mxCell>
      </root>
    </mxGraphModel>
  </diagram>
</mxfile>
